<mxfile host="8eb4b988-824d-49ea-bda5-fff68a44b699" modified="2020-09-08T10:35:57.572Z" agent="5.0 (Windows NT 10.0; Win64; x64) AppleWebKit/537.36 (KHTML, like Gecko) Code/1.48.2 Chrome/78.0.3904.130 Electron/7.3.2 Safari/537.36" etag="aYMVTTTN6AEgI_LXntK9" version="13.6.5" pages="2">
    <diagram id="6hGFLwfOUW9BJ-s0fimq" name="diagram">
        <mxGraphModel dx="759" dy="896" grid="1" gridSize="10" guides="1" tooltips="1" connect="1" arrows="1" fold="1" page="1" pageScale="1" pageWidth="1169" pageHeight="1654" math="0" shadow="0">
            <root>
                <mxCell id="0"/>
                <mxCell id="1" parent="0"/>
                <mxCell id="2" value="main controller" style="shape=ext;rounded=1;html=1;whiteSpace=wrap;labelPosition=center;verticalLabelPosition=top;align=left;verticalAlign=bottom;" parent="1" vertex="1">
                    <mxGeometry x="110" y="290" width="420" height="370" as="geometry"/>
                </mxCell>
                <mxCell id="3" value="Map" style="shape=ext;rounded=1;html=1;whiteSpace=wrap;align=left;labelPosition=center;verticalLabelPosition=top;verticalAlign=bottom;" parent="1" vertex="1">
                    <mxGeometry x="340" y="510" width="130" height="120" as="geometry"/>
                </mxCell>
                <mxCell id="4" value="Function ID" style="shape=ext;rounded=1;html=1;whiteSpace=wrap;align=center;" parent="1" vertex="1">
                    <mxGeometry x="370" y="530" width="70" height="30" as="geometry"/>
                </mxCell>
                <mxCell id="5" value="My function IDs" style="shape=ext;rounded=1;html=1;whiteSpace=wrap;align=center;labelPosition=center;verticalLabelPosition=top;verticalAlign=bottom;" parent="1" vertex="1">
                    <mxGeometry x="150" y="320" width="120" height="320" as="geometry"/>
                </mxCell>
                <mxCell id="9" style="edgeStyle=none;rounded=0;orthogonalLoop=1;jettySize=auto;html=1;exitX=0.5;exitY=0;exitDx=0;exitDy=0;entryX=0.5;entryY=1;entryDx=0;entryDy=0;startArrow=classic;startFill=1;" parent="1" source="6" target="4" edge="1">
                    <mxGeometry relative="1" as="geometry"/>
                </mxCell>
                <mxCell id="6" value="Message ID" style="shape=ext;rounded=1;html=1;whiteSpace=wrap;align=center;" parent="1" vertex="1">
                    <mxGeometry x="370" y="580" width="70" height="30" as="geometry"/>
                </mxCell>
                <mxCell id="12" value="Forward" style="shape=ext;rounded=1;html=1;whiteSpace=wrap;align=center;labelPosition=center;verticalLabelPosition=middle;verticalAlign=middle;" parent="1" vertex="1">
                    <mxGeometry x="340" y="340" width="130" height="40" as="geometry"/>
                </mxCell>
                <mxCell id="13" value="pause" style="shape=ext;rounded=1;html=1;whiteSpace=wrap;align=center;" parent="1" vertex="1">
                    <mxGeometry x="165" y="330" width="90" height="30" as="geometry"/>
                </mxCell>
                <mxCell id="15" value="stop" style="shape=ext;rounded=1;html=1;whiteSpace=wrap;align=center;" parent="1" vertex="1">
                    <mxGeometry x="165" y="410" width="90" height="30" as="geometry"/>
                </mxCell>
                <mxCell id="19" value="etc." style="shape=ext;rounded=1;html=1;whiteSpace=wrap;align=center;" parent="1" vertex="1">
                    <mxGeometry x="165" y="590" width="90" height="30" as="geometry"/>
                </mxCell>
                <mxCell id="20" value="resume" style="shape=ext;rounded=1;html=1;whiteSpace=wrap;align=center;" parent="1" vertex="1">
                    <mxGeometry x="165" y="370" width="90" height="30" as="geometry"/>
                </mxCell>
                <mxCell id="21" value="motion" style="shape=ext;rounded=1;html=1;whiteSpace=wrap;align=center;" parent="1" vertex="1">
                    <mxGeometry x="165" y="450" width="90" height="30" as="geometry"/>
                </mxCell>
                <mxCell id="22" value="status control" style="shape=ext;rounded=1;html=1;whiteSpace=wrap;align=center;" parent="1" vertex="1">
                    <mxGeometry x="165" y="490" width="90" height="30" as="geometry"/>
                </mxCell>
                <mxCell id="23" value="status subscribe" style="shape=ext;rounded=1;html=1;whiteSpace=wrap;align=center;" parent="1" vertex="1">
                    <mxGeometry x="165" y="530" width="90" height="30" as="geometry"/>
                </mxCell>
                <mxCell id="55" style="edgeStyle=orthogonalEdgeStyle;rounded=0;orthogonalLoop=1;jettySize=auto;html=1;exitX=0.5;exitY=1;exitDx=0;exitDy=0;entryX=0.5;entryY=0;entryDx=0;entryDy=0;startArrow=classic;startFill=1;" parent="1" source="24" target="3" edge="1">
                    <mxGeometry relative="1" as="geometry"/>
                </mxCell>
                <mxCell id="56" style="edgeStyle=orthogonalEdgeStyle;rounded=0;orthogonalLoop=1;jettySize=auto;html=1;exitX=0;exitY=0.5;exitDx=0;exitDy=0;entryX=1.01;entryY=0.375;entryDx=0;entryDy=0;entryPerimeter=0;startArrow=classic;startFill=1;" parent="1" source="24" target="5" edge="1">
                    <mxGeometry relative="1" as="geometry"/>
                </mxCell>
                <mxCell id="24" value="Message ID&lt;br&gt;manager" style="shape=ext;rounded=1;html=1;whiteSpace=wrap;align=center;labelPosition=center;verticalLabelPosition=middle;verticalAlign=middle;" parent="1" vertex="1">
                    <mxGeometry x="340" y="410" width="130" height="60" as="geometry"/>
                </mxCell>
                <mxCell id="26" value="modules" style="shape=ext;rounded=1;html=1;whiteSpace=wrap;labelPosition=center;verticalLabelPosition=top;align=left;verticalAlign=bottom;" parent="1" vertex="1">
                    <mxGeometry x="710" y="330" width="340" height="330" as="geometry"/>
                </mxCell>
                <mxCell id="27" value="My function IDs" style="shape=ext;rounded=1;html=1;whiteSpace=wrap;align=center;labelPosition=center;verticalLabelPosition=top;verticalAlign=bottom;" parent="1" vertex="1">
                    <mxGeometry x="900" y="357" width="120" height="280" as="geometry"/>
                </mxCell>
                <mxCell id="30" value="etc." style="shape=ext;rounded=1;html=1;whiteSpace=wrap;align=center;" parent="1" vertex="1">
                    <mxGeometry x="915" y="590" width="90" height="30" as="geometry"/>
                </mxCell>
                <mxCell id="31" value="status subscribe" style="shape=ext;rounded=1;html=1;whiteSpace=wrap;align=center;" parent="1" vertex="1">
                    <mxGeometry x="915" y="380" width="90" height="30" as="geometry"/>
                </mxCell>
                <mxCell id="32" value="Heating" style="shape=ext;rounded=1;html=1;whiteSpace=wrap;align=center;" parent="1" vertex="1">
                    <mxGeometry x="915" y="520" width="90" height="30" as="geometry"/>
                </mxCell>
                <mxCell id="36" value="Map" style="shape=ext;rounded=1;html=1;whiteSpace=wrap;align=left;labelPosition=center;verticalLabelPosition=top;verticalAlign=bottom;" parent="1" vertex="1">
                    <mxGeometry x="730" y="520" width="130" height="120" as="geometry"/>
                </mxCell>
                <mxCell id="54" style="edgeStyle=orthogonalEdgeStyle;rounded=0;orthogonalLoop=1;jettySize=auto;html=1;exitX=0.5;exitY=1;exitDx=0;exitDy=0;entryX=0.5;entryY=0;entryDx=0;entryDy=0;startArrow=classic;startFill=1;" parent="1" source="37" target="38" edge="1">
                    <mxGeometry relative="1" as="geometry"/>
                </mxCell>
                <mxCell id="37" value="Function ID" style="shape=ext;rounded=1;html=1;whiteSpace=wrap;align=center;" parent="1" vertex="1">
                    <mxGeometry x="760" y="540" width="70" height="30" as="geometry"/>
                </mxCell>
                <mxCell id="38" value="Message ID" style="shape=ext;rounded=1;html=1;whiteSpace=wrap;align=center;" parent="1" vertex="1">
                    <mxGeometry x="760" y="590" width="70" height="30" as="geometry"/>
                </mxCell>
                <mxCell id="57" style="edgeStyle=orthogonalEdgeStyle;rounded=0;orthogonalLoop=1;jettySize=auto;html=1;exitX=0.5;exitY=1;exitDx=0;exitDy=0;entryX=0.5;entryY=0;entryDx=0;entryDy=0;startArrow=classic;startFill=1;" parent="1" source="39" target="36" edge="1">
                    <mxGeometry relative="1" as="geometry"/>
                </mxCell>
                <mxCell id="59" style="edgeStyle=orthogonalEdgeStyle;rounded=0;orthogonalLoop=1;jettySize=auto;html=1;exitX=1;exitY=0.5;exitDx=0;exitDy=0;entryX=0.002;entryY=0.385;entryDx=0;entryDy=0;entryPerimeter=0;startArrow=classic;startFill=1;" parent="1" source="39" target="27" edge="1">
                    <mxGeometry relative="1" as="geometry"/>
                </mxCell>
                <mxCell id="39" value="Message ID&lt;br&gt;application" style="shape=ext;rounded=1;html=1;whiteSpace=wrap;align=center;labelPosition=center;verticalLabelPosition=middle;verticalAlign=middle;" parent="1" vertex="1">
                    <mxGeometry x="730" y="435" width="130" height="60" as="geometry"/>
                </mxCell>
                <mxCell id="40" value="Transceiver" style="shape=ext;rounded=1;html=1;whiteSpace=wrap;align=center;labelPosition=center;verticalLabelPosition=middle;verticalAlign=middle;" parent="1" vertex="1">
                    <mxGeometry x="730" y="357" width="130" height="60" as="geometry"/>
                </mxCell>
                <mxCell id="48" style="edgeStyle=orthogonalEdgeStyle;rounded=0;orthogonalLoop=1;jettySize=auto;html=1;exitX=0;exitY=0.5;exitDx=0;exitDy=0;startArrow=classic;startFill=1;" parent="1" source="45" target="12" edge="1">
                    <mxGeometry relative="1" as="geometry"/>
                </mxCell>
                <mxCell id="45" value="HMI/PC" style="shape=ext;rounded=1;html=1;whiteSpace=wrap;align=center;" parent="1" vertex="1">
                    <mxGeometry x="710" y="200" width="120" height="80" as="geometry"/>
                </mxCell>
                <mxCell id="47" style="edgeStyle=orthogonalEdgeStyle;rounded=0;orthogonalLoop=1;jettySize=auto;html=1;exitX=1;exitY=0.5;exitDx=0;exitDy=0;entryX=0;entryY=0.5;entryDx=0;entryDy=0;startArrow=classic;startFill=1;" parent="1" source="12" target="40" edge="1">
                    <mxGeometry relative="1" as="geometry"/>
                </mxCell>
                <mxCell id="50" value="FAN1" style="shape=ext;rounded=1;html=1;whiteSpace=wrap;align=center;" parent="1" vertex="1">
                    <mxGeometry x="915" y="425" width="90" height="30" as="geometry"/>
                </mxCell>
                <mxCell id="52" value="FAN2" style="shape=ext;rounded=1;html=1;whiteSpace=wrap;align=center;" parent="1" vertex="1">
                    <mxGeometry x="915" y="470" width="90" height="30" as="geometry"/>
                </mxCell>
                <mxCell id="60" style="edgeStyle=orthogonalEdgeStyle;rounded=0;orthogonalLoop=1;jettySize=auto;html=1;exitX=1;exitY=0.5;exitDx=0;exitDy=0;entryX=0;entryY=0.5;entryDx=0;entryDy=0;startArrow=classic;startFill=1;" parent="1" source="24" target="39" edge="1">
                    <mxGeometry relative="1" as="geometry"/>
                </mxCell>
            </root>
        </mxGraphModel>
    </diagram>
    <diagram id="VowOgIezj9g2hc50daw6" name="MC">
        <mxGraphModel dx="361" dy="427" grid="1" gridSize="10" guides="1" tooltips="1" connect="1" arrows="1" fold="1" page="1" pageScale="1" pageWidth="1654" pageHeight="1169" math="0" shadow="0">
            <root>
                <mxCell id="pMmG9ZlRN9Pr0N_6xyBW-0"/>
                <mxCell id="pMmG9ZlRN9Pr0N_6xyBW-1" parent="pMmG9ZlRN9Pr0N_6xyBW-0"/>
                <mxCell id="_TjGPpLh43Zhuwlae4S1-2" value="can host" style="swimlane;fontStyle=1;align=center;verticalAlign=top;childLayout=stackLayout;horizontal=1;startSize=26;horizontalStack=0;resizeParent=1;resizeParentMax=0;resizeLast=0;collapsible=1;marginBottom=0;" parent="pMmG9ZlRN9Pr0N_6xyBW-1" vertex="1">
                    <mxGeometry x="230" y="20" width="290" height="190" as="geometry"/>
                </mxCell>
                <mxCell id="_TjGPpLh43Zhuwlae4S1-3" value="+ Init(): " style="text;strokeColor=none;fillColor=none;align=left;verticalAlign=top;spacingLeft=4;spacingRight=4;overflow=hidden;rotatable=0;points=[[0,0.5],[1,0.5]];portConstraint=eastwest;" parent="_TjGPpLh43Zhuwlae4S1-2" vertex="1">
                    <mxGeometry y="26" width="290" height="26" as="geometry"/>
                </mxCell>
                <mxCell id="_TjGPpLh43Zhuwlae4S1-8" value="+ Init(): " style="text;strokeColor=none;fillColor=none;align=left;verticalAlign=top;spacingLeft=4;spacingRight=4;overflow=hidden;rotatable=0;points=[[0,0.5],[1,0.5]];portConstraint=eastwest;" parent="_TjGPpLh43Zhuwlae4S1-2" vertex="1">
                    <mxGeometry y="52" width="290" height="26" as="geometry"/>
                </mxCell>
                <mxCell id="_TjGPpLh43Zhuwlae4S1-9" value="+ Init(): " style="text;strokeColor=none;fillColor=none;align=left;verticalAlign=top;spacingLeft=4;spacingRight=4;overflow=hidden;rotatable=0;points=[[0,0.5],[1,0.5]];portConstraint=eastwest;" parent="_TjGPpLh43Zhuwlae4S1-2" vertex="1">
                    <mxGeometry y="78" width="290" height="26" as="geometry"/>
                </mxCell>
                <mxCell id="_TjGPpLh43Zhuwlae4S1-4" value="" style="line;strokeWidth=1;fillColor=none;align=left;verticalAlign=middle;spacingTop=-1;spacingLeft=3;spacingRight=3;rotatable=0;labelPosition=right;points=[];portConstraint=eastwest;" parent="_TjGPpLh43Zhuwlae4S1-2" vertex="1">
                    <mxGeometry y="104" width="290" height="8" as="geometry"/>
                </mxCell>
                <mxCell id="_TjGPpLh43Zhuwlae4S1-5" value="+ Init(void): void" style="text;strokeColor=none;fillColor=none;align=left;verticalAlign=top;spacingLeft=4;spacingRight=4;overflow=hidden;rotatable=0;points=[[0,0.5],[1,0.5]];portConstraint=eastwest;" parent="_TjGPpLh43Zhuwlae4S1-2" vertex="1">
                    <mxGeometry y="112" width="290" height="26" as="geometry"/>
                </mxCell>
                <mxCell id="_TjGPpLh43Zhuwlae4S1-6" value="+ SendStdMessage(type): type" style="text;strokeColor=none;fillColor=none;align=left;verticalAlign=top;spacingLeft=4;spacingRight=4;overflow=hidden;rotatable=0;points=[[0,0.5],[1,0.5]];portConstraint=eastwest;" parent="_TjGPpLh43Zhuwlae4S1-2" vertex="1">
                    <mxGeometry y="138" width="290" height="26" as="geometry"/>
                </mxCell>
                <mxCell id="_TjGPpLh43Zhuwlae4S1-7" value="+ method(type): type" style="text;strokeColor=none;fillColor=none;align=left;verticalAlign=top;spacingLeft=4;spacingRight=4;overflow=hidden;rotatable=0;points=[[0,0.5],[1,0.5]];portConstraint=eastwest;" parent="_TjGPpLh43Zhuwlae4S1-2" vertex="1">
                    <mxGeometry y="164" width="290" height="26" as="geometry"/>
                </mxCell>
                <mxCell id="iUo90XxxAvVlTa00yoRx-0" value="can channel" style="rounded=1;whiteSpace=wrap;html=1;align=center;labelPosition=center;verticalLabelPosition=top;verticalAlign=bottom;" parent="pMmG9ZlRN9Pr0N_6xyBW-1" vertex="1">
                    <mxGeometry x="180" y="410" width="120" height="230" as="geometry"/>
                </mxCell>
                <mxCell id="iUo90XxxAvVlTa00yoRx-1" value="module server:&lt;br&gt;can host" style="rounded=1;whiteSpace=wrap;html=1;align=center;labelPosition=center;verticalLabelPosition=top;verticalAlign=bottom;" parent="pMmG9ZlRN9Pr0N_6xyBW-1" vertex="1">
                    <mxGeometry x="450" y="370" width="140" height="260" as="geometry"/>
                </mxCell>
                <mxCell id="_TjGPpLh43Zhuwlae4S1-0" value="module client:&lt;br&gt;linear" style="rounded=1;whiteSpace=wrap;html=1;align=center;labelPosition=center;verticalLabelPosition=top;verticalAlign=bottom;" parent="pMmG9ZlRN9Pr0N_6xyBW-1" vertex="1">
                    <mxGeometry x="780" y="385" width="120" height="230" as="geometry"/>
                </mxCell>
            </root>
        </mxGraphModel>
    </diagram>
</mxfile>